<svg width="116" height="116" viewBox="0 0 116 116" fill="none" xmlns="http://www.w3.org/2000/svg">
<path d="M13.7484 83.7172C14.7204 82.7452 14.7204 81.1692 13.7484 80.197C12.7765 79.2253 11.2004 79.2253 10.2282 80.197L0.729023 89.6967C-0.242926 90.6687 -0.242926 92.2447 0.729023 93.2169C1.21487 93.7027 1.85205 93.9459 2.48899 93.9459C3.12592 93.9459 3.7631 93.7027 4.24895 93.2169L13.7484 83.7172Z" fill="#15C3D6"/>
<path d="M76.3909 17.0818C74.1837 19.2893 72.9681 22.224 72.9681 25.3455C72.9681 28.4671 74.1837 31.4019 76.3909 33.6091C78.6691 35.8873 81.6619 37.0262 84.6546 37.0262C87.6474 37.0262 90.6399 35.8873 92.918 33.6091C95.1255 31.4019 96.3409 28.4671 96.3409 25.3455C96.3409 22.224 95.1253 19.2893 92.918 17.0818C88.3617 12.5255 80.9478 12.5255 76.3909 17.0818ZM89.3981 30.0892C86.7824 32.7054 82.5268 32.7051 79.9109 30.0892C78.6437 28.8221 77.9461 27.1378 77.9461 25.3455C77.9461 23.5536 78.644 21.8688 79.9109 20.6017C81.2188 19.2937 82.9365 18.6399 84.6546 18.6399C86.3723 18.6399 88.0907 19.294 89.3981 20.6017C90.6653 21.8688 91.3632 23.5534 91.3632 25.3455C91.3632 27.1378 90.6653 28.8221 89.3981 30.0892Z" fill="#15C3D6"/>
<path d="M21.5982 88.0471C20.6262 87.0754 19.0502 87.0754 18.0782 88.0471L4.75319 101.372C3.78124 102.344 3.78124 103.92 4.75319 104.893C5.23929 105.378 5.87622 105.622 6.51315 105.622C7.15009 105.622 7.78727 105.378 8.27312 104.893L21.5982 91.5673C22.5701 90.5951 22.5701 89.0191 21.5982 88.0471Z" fill="#15C3D6"/>
<path d="M108.415 3.31745C108.182 2.47568 107.524 1.81834 106.683 1.58463C97.6118 -0.932973 87.7862 -0.443143 78.2684 3.00036C70.8932 5.66879 63.7205 10.142 58.5892 15.2735L50.8494 23.0132L22.81 27.3931C22.2888 27.4745 21.8072 27.7194 21.4341 28.0922L3.50071 46.0256C2.8023 46.7242 2.58277 47.7694 2.94144 48.6895C3.3001 49.6097 4.16925 50.2307 5.15589 50.2723L22.8459 51.0162L18.4122 55.4498C17.4403 56.4218 17.4403 57.9978 18.4122 58.97L21 61.5575L13.271 73.4048C12.6278 74.3907 12.763 75.6922 13.5955 76.5248L33.4753 96.4042C34.3079 97.2365 35.6094 97.3724 36.5955 96.7288L48.4423 88.9995L51.0301 91.5873C52.0021 92.559 53.5781 92.559 54.5503 91.5873L58.9839 87.1537L59.7279 104.843C59.7695 105.83 60.3905 106.699 61.3107 107.058C61.6044 107.172 61.9105 107.228 62.2141 107.228C62.8623 107.228 63.499 106.974 63.9746 106.499L81.908 88.5652C82.2811 88.1921 82.5258 87.7102 82.6074 87.1893L86.9875 59.1502L94.727 51.4105C99.8583 46.2792 104.332 39.1065 107 31.7316C110.443 22.214 110.933 12.3883 108.415 3.31745ZM35.5671 91.4559L18.5439 74.4328L24.5974 65.1544L32.9613 73.5183L31.9777 74.502C31.0055 75.4739 31.0055 77.0499 31.9777 78.0221C32.9496 78.9938 34.5257 78.9938 35.4979 78.0221L36.4815 77.0385L44.8455 85.4024L35.5671 91.4559ZM91.2066 47.8908L82.8931 56.2045C82.8922 56.2055 82.8912 56.2065 82.8902 56.2075L74.2399 64.8577C73.268 65.8296 73.268 67.4056 74.2399 68.3778C75.2119 69.3495 76.7879 69.3495 77.7601 68.3778L81.0162 65.1218L77.8141 85.6195L64.4632 98.9706L63.7653 82.3726L70.7203 75.4177C71.6922 74.4457 71.6922 72.8697 70.7203 71.8975C69.7483 70.9258 68.1723 70.9258 67.2001 71.8975L59.479 79.6186C59.4748 79.6228 59.4708 79.6268 59.4666 79.631L52.7901 86.3072L50.5707 84.0878C50.5453 84.0616 50.5199 84.036 50.4935 84.0109L40.0012 73.5183L70.1042 43.4156C71.0762 42.4437 71.0764 40.8677 70.1042 39.8955C69.1325 38.924 67.5565 38.9238 66.5843 39.8955L36.4813 69.9987L25.9885 59.5059C25.9636 59.48 25.9382 59.4546 25.912 59.4295L23.6926 57.2098L30.3691 50.5334C30.3733 50.5294 30.3773 50.5254 30.3813 50.5212L38.1023 42.8001C39.0745 41.8282 39.0745 40.2521 38.1023 39.2799C37.1306 38.3082 35.5544 38.3082 34.5824 39.2799L27.6274 46.2349L11.0294 45.5367L24.3803 32.1859L44.8781 28.984L41.622 32.2399L45.1419 35.76L53.766 27.136C53.7847 27.1178 53.8034 27.0994 53.8215 27.0805L62.1089 18.7932C69.0352 11.8671 85.4814 1.60479 103.974 6.02546C108.395 24.5186 98.1327 40.965 91.2066 47.8908Z" fill="#15C3D6"/>
<path d="M26.2824 96.2514L16.783 105.751C15.811 106.723 15.811 108.299 16.783 109.271C17.2691 109.757 17.906 110 18.5429 110C19.1799 110 19.8171 109.757 20.3029 109.271L29.8024 99.7716C30.7743 98.7996 30.7743 97.2236 29.8024 96.2514C28.8307 95.2795 27.2546 95.2795 26.2824 96.2514Z" fill="#15C3D6"/>
</svg>
