<svg width="110" height="110" viewBox="0 0 110 110" fill="none" xmlns="http://www.w3.org/2000/svg">
<path d="M96.25 88.9402C96.7059 88.9402 97.143 88.7591 97.4654 88.4368C97.7877 88.1145 97.9688 87.6773 97.9688 87.2215V28.784C97.9688 28.4728 97.8844 28.1675 97.7245 27.9005C97.5646 27.6336 97.3352 27.415 97.0609 27.2682C96.7865 27.1214 96.4774 27.0519 96.1666 27.067C95.8558 27.0821 95.555 27.1813 95.2961 27.354L94.4058 27.9469C94.0383 25.1655 92.7707 22.5807 90.7964 20.5872C91.2096 20.4637 91.6312 20.3706 92.058 20.3088L93.0394 20.1747C93.2631 20.1443 93.4786 20.07 93.6736 19.9563C93.8685 19.8425 94.0392 19.6915 94.1758 19.5118C94.3125 19.3321 94.4123 19.1272 94.4698 18.9089C94.5272 18.6906 94.5411 18.4631 94.5107 18.2394C94.4802 18.0158 94.406 17.8003 94.2922 17.6053C94.1785 17.4103 94.0274 17.2396 93.8477 17.103C93.668 16.9664 93.4631 16.8665 93.2448 16.809C93.0265 16.7516 92.799 16.7377 92.5753 16.7682L91.5922 16.9022C90.1786 17.0973 88.8096 17.5364 87.5463 18.1999C86.0412 17.4107 84.3926 16.9328 82.6988 16.7946C81.0049 16.6564 79.3006 16.8608 77.6875 17.3955C78.5754 16.2201 79.0579 14.7883 79.0625 13.3152C79.0625 11.4919 78.3382 9.74317 77.0489 8.45386C75.7596 7.16454 74.0109 6.44021 72.1875 6.44021C71.6504 6.44001 71.1153 6.50581 70.5942 6.63615C69.8041 5.51373 68.7557 4.59775 67.5373 3.96546C66.319 3.33318 64.9664 3.00312 63.5938 3.00312C62.2211 3.00312 60.8686 3.33318 59.6502 3.96546C58.4319 4.59775 57.3834 5.51373 56.5933 6.63615C56.0722 6.50592 55.5371 6.44011 55 6.44021C53.1767 6.44021 51.428 7.16454 50.1387 8.45386C48.8494 9.74317 48.125 11.4919 48.125 13.3152C48.1248 13.8523 48.1906 14.3874 48.321 14.9085C47.3798 15.5678 46.5817 16.4105 45.9745 17.386C45.3674 18.3616 44.9637 19.4498 44.7877 20.5853C44.6118 21.7208 44.6672 22.8802 44.9507 23.9937C45.2341 25.1073 45.7398 26.152 46.4372 27.0652C46.1899 27.3967 45.9665 27.7453 45.7686 28.1085L37.4688 13.7174L35.75 10.7371C34.7341 8.97672 33.3813 7.43381 31.7689 6.19653C30.1564 4.95925 28.3159 4.05187 26.3526 3.52624C24.3893 3.00062 22.3416 2.86705 20.3267 3.13318C18.3117 3.39931 16.3689 4.05992 14.6094 5.07725C12.6377 6.21883 11.1993 8.09581 10.6097 10.2965C10.0201 12.4972 10.3273 14.8419 11.4641 16.8163L13.4286 20.2177C13.6582 20.6093 14.0333 20.8941 14.472 21.0101C14.9108 21.1261 15.3777 21.0639 15.7708 20.8369C16.1638 20.61 16.4511 20.2368 16.5701 19.7988C16.689 19.3608 16.6298 18.8935 16.4055 18.499L14.4375 15.0976C14.0986 14.5108 13.8786 13.863 13.7902 13.1912C13.7018 12.5194 13.7466 11.8367 13.9222 11.1823C14.0978 10.5278 14.4007 9.91435 14.8135 9.37701C15.2263 8.83967 15.741 8.38897 16.3282 8.05068C17.6965 7.26081 19.2071 6.74818 20.7735 6.54209C22.34 6.33599 23.9317 6.44045 25.4578 6.84951C26.9839 7.25856 28.4145 7.9642 29.6679 8.92614C30.9213 9.88808 31.973 11.0875 32.7628 12.4558L33.6222 13.9426L27.6702 17.3801C27.4746 17.4929 27.3032 17.6432 27.1657 17.8223C27.0282 18.0014 26.9273 18.2058 26.8688 18.4239C26.8103 18.642 26.7953 18.8695 26.8248 19.0934C26.8542 19.3173 26.9274 19.5332 27.0403 19.7287C27.1531 19.9243 27.3034 20.0957 27.4825 20.2332C27.6616 20.3707 27.866 20.4716 28.0841 20.5301C28.3022 20.5886 28.5297 20.6036 28.7536 20.5742C28.9775 20.5447 29.1934 20.4715 29.3889 20.3587L35.3427 16.9212L37.9208 21.3899L31.9671 24.8274C31.6685 25.0023 31.4297 25.2632 31.2819 25.576C31.1341 25.8889 31.0841 26.239 31.1385 26.5807C31.1929 26.9224 31.3492 27.2397 31.5868 27.4911C31.8245 27.7425 32.1326 27.9164 32.4707 27.9899L24.8274 33.0808L19.5542 23.9491C19.3263 23.5541 18.9508 23.2659 18.5104 23.1477C18.0699 23.0296 17.6006 23.0913 17.2056 23.3192C16.8106 23.5471 16.5223 23.9226 16.4042 24.3631C16.2861 24.8035 16.3477 25.2729 16.5757 25.6679L19.3257 30.434L14.7005 27.3505C14.4414 27.1786 14.1406 27.0801 13.83 27.0657C13.5195 27.0512 13.2108 27.1212 12.9369 27.2683C12.6629 27.4154 12.4341 27.6341 12.2746 27.901C12.1151 28.1679 12.031 28.473 12.0313 28.784V37.3777C12.0313 37.8336 12.2124 38.2707 12.5347 38.5931C12.857 38.9154 13.2942 39.0965 13.75 39.0965C14.2059 39.0965 14.643 38.9154 14.9654 38.5931C15.2877 38.2707 15.4688 37.8336 15.4688 37.3777V31.9963L23.1086 37.089C23.3911 37.2774 23.723 37.378 24.0625 37.378C24.4021 37.378 24.734 37.2774 25.0164 37.089L34.375 30.8465L43.7336 37.0855C44.0161 37.274 44.348 37.3745 44.6875 37.3745C45.0271 37.3745 45.359 37.274 45.6414 37.0855L55 30.8465L64.3586 37.0855C64.6411 37.274 64.973 37.3745 65.3125 37.3745C65.6521 37.3745 65.984 37.274 66.2664 37.0855L73.9063 31.9946V102.69H51.5625C51.1067 102.69 50.6695 102.871 50.3472 103.194C50.0249 103.516 49.8438 103.953 49.8438 104.409C49.8438 104.865 50.0249 105.302 50.3472 105.624C50.6695 105.947 51.1067 106.128 51.5625 106.128H96.25C96.7059 106.128 97.143 105.947 97.4654 105.624C97.7877 105.302 97.9688 104.865 97.9688 104.409V94.0965C97.9688 93.6406 97.7877 93.2035 97.4654 92.8811C97.143 92.5588 96.7059 92.3777 96.25 92.3777C95.7942 92.3777 95.357 92.5588 95.0347 92.8811C94.7124 93.2035 94.5313 93.6406 94.5313 94.0965V100.26L87.6563 93.3849V83.784C87.6563 83.3281 87.4752 82.891 87.1529 82.5686C86.8305 82.2463 86.3934 82.0652 85.9375 82.0652C85.4817 82.0652 85.0445 82.2463 84.7222 82.5686C84.3999 82.891 84.2188 83.3281 84.2188 83.784V93.3849L77.3438 100.26V31.9946L84.2188 36.5785V58.0027C84.2188 58.4586 84.3999 58.8957 84.7222 59.2181C85.0445 59.5404 85.4817 59.7215 85.9375 59.7215C86.3934 59.7215 86.8305 59.5404 87.1529 59.2181C87.4752 58.8957 87.6563 58.4586 87.6563 58.0027V36.5785L94.5313 31.9963V87.2215C94.5313 87.6773 94.7124 88.1145 95.0347 88.4368C95.357 88.7591 95.7942 88.9402 96.25 88.9402ZM84.3769 20.5976C83.7569 21.2512 83.21 21.9704 82.7458 22.7426C82.6247 22.9361 82.5434 23.1518 82.5065 23.3772C82.4697 23.6025 82.4782 23.8329 82.5314 24.055C82.5846 24.277 82.6815 24.4862 82.8165 24.6703C82.9515 24.8545 83.1218 25.0099 83.3175 25.1275C83.5132 25.2451 83.7304 25.3226 83.9563 25.3553C84.1823 25.388 84.4125 25.3754 84.6336 25.3182C84.8546 25.261 85.062 25.1603 85.2437 25.022C85.4254 24.8838 85.5777 24.7107 85.6917 24.5129C86.1955 23.6752 86.8343 22.9266 87.5824 22.2974C88.6791 23.1819 89.5637 24.3009 90.1713 25.5721C90.779 26.8433 91.0942 28.2344 91.0938 29.6433C91.0938 29.8272 91.0646 30.0026 91.0525 30.183L85.9375 33.5965L76.5789 27.3574C76.2969 27.1678 75.9649 27.0662 75.625 27.0652C75.6239 25.8563 75.3 24.6695 74.6866 23.6277C74.8312 23.3792 74.9603 23.1221 75.0733 22.8577C76.2801 21.6831 77.7798 20.8538 79.4162 20.4563C81.0527 20.0587 82.7658 20.1075 84.3769 20.5976ZM35.3289 27.354C35.18 27.2555 35.0164 27.1812 34.8442 27.134L39.6396 24.3668L44.8886 33.459L44.6875 33.5965L35.3289 27.354ZM65.3125 33.5965L58.3258 28.9387C60.3089 25.2778 63.5102 22.4261 67.375 20.8777C67.7985 20.7081 68.1373 20.3773 68.3168 19.9579C68.4963 19.5386 68.5019 19.0651 68.3324 18.6416C68.1628 18.2181 67.8319 17.8794 67.4126 17.6998C66.9933 17.5203 66.5198 17.5147 66.0963 17.6843C64.1235 18.4817 62.2816 19.5709 60.6324 20.9155C60.7911 18.8022 60.613 16.6771 60.1047 14.6197C60.0512 14.3994 59.9546 14.1918 59.8205 14.009C59.6864 13.8262 59.5174 13.6717 59.3234 13.5544C59.1293 13.4372 58.914 13.3595 58.6897 13.3258C58.4655 13.2921 58.2368 13.3032 58.0169 13.3583C57.7969 13.4134 57.5901 13.5114 57.4082 13.6468C57.2263 13.7822 57.073 13.9523 56.9571 14.1472C56.8413 14.3421 56.7651 14.558 56.7331 14.7825C56.701 15.0069 56.7137 15.2355 56.7703 15.4551C57.7526 19.3836 57.2597 23.536 55.385 27.1254C55.1579 27.0703 54.9218 27.0625 54.6915 27.1024C54.4612 27.1423 54.2415 27.2291 54.0461 27.3574L48.2333 31.2332C48.4571 30.1162 49.0467 29.1056 49.9091 28.3612C50.092 28.1999 50.2384 28.0015 50.3388 27.7792C50.4391 27.557 50.491 27.3159 50.491 27.0721C50.491 26.8282 50.4391 26.5872 50.3388 26.3649C50.2384 26.1427 50.092 25.9443 49.9091 25.783C49.349 25.3049 48.8994 24.7109 48.5913 24.0421C48.2833 23.3732 48.1242 22.6454 48.125 21.909C48.1294 20.9214 48.4166 19.9557 48.9527 19.1263C49.4888 18.2968 50.2513 17.6384 51.15 17.2288C51.3616 17.1321 51.5513 16.9935 51.7077 16.8213C51.8641 16.6492 51.9839 16.4471 52.0599 16.2273C52.1359 16.0074 52.1665 15.7745 52.1499 15.5425C52.1332 15.3105 52.0696 15.0843 51.963 14.8776C51.7054 14.3967 51.568 13.8607 51.5625 13.3152C51.5668 12.729 51.7208 12.1536 52.0101 11.6437C52.2994 11.1339 52.7143 10.7065 53.2153 10.4021C53.7164 10.0978 54.2869 9.92663 54.8727 9.90493C55.4586 9.88324 56.0402 10.0117 56.5624 10.2782C56.7691 10.3848 56.9953 10.4484 57.2273 10.4651C57.4593 10.4817 57.6922 10.4511 57.9121 10.3751C58.1319 10.2991 58.334 10.1793 58.5062 10.0229C58.6783 9.86648 58.8169 9.67676 58.9136 9.46522C59.3193 8.56359 59.9769 7.79836 60.8071 7.26152C61.6374 6.72468 62.6051 6.43909 63.5938 6.43909C64.5825 6.43909 65.5501 6.72468 66.3804 7.26152C67.2107 7.79836 67.8682 8.56359 68.2739 9.46522C68.3706 9.677 68.5092 9.86694 68.6815 10.0235C68.8537 10.1801 69.056 10.3001 69.276 10.3762C69.496 10.4508 69.7288 10.4805 69.9605 10.4637C70.1922 10.4469 70.4182 10.3838 70.6252 10.2782C71.0516 10.0551 71.5204 9.92464 72.0007 9.89525C72.4811 9.86584 72.9623 9.9382 73.4127 10.1076C73.8632 10.2769 74.2728 10.5395 74.6148 10.8781C74.9568 11.2167 75.2235 11.6237 75.3973 12.0725C75.5712 12.5212 75.6483 13.0017 75.6237 13.4823C75.5991 13.9629 75.4733 14.4329 75.2545 14.8616C75.0357 15.2902 74.7289 15.6679 74.3541 15.9698C73.9793 16.2717 73.545 16.491 73.0796 16.6135C72.8454 16.6769 72.6274 16.7891 72.4397 16.9428C72.252 17.0965 72.099 17.2882 71.9907 17.5052C71.8825 17.7223 71.8213 17.9598 71.8114 18.2022C71.8015 18.4446 71.843 18.6863 71.9332 18.9115C72.0987 19.3176 72.1851 19.7516 72.1875 20.1902C72.1848 21.0381 71.8647 21.8542 71.2903 22.4779C71.0063 22.7935 70.8491 23.2031 70.8491 23.6277C70.8491 24.0523 71.0063 24.4619 71.2903 24.7776C71.7374 25.2644 72.0337 25.8705 72.1431 26.5224C72.2525 27.1742 72.1704 27.8438 71.9067 28.4499C71.6431 29.0561 71.2092 29.5726 70.6577 29.937C70.1062 30.3014 69.4608 30.4979 68.7999 30.5027C68.7552 30.5027 68.573 30.4769 68.53 30.4752C68.2593 30.4572 67.9881 30.5042 67.7391 30.6122C67.4902 30.7202 67.2706 30.8861 67.0988 31.0961C66.9269 31.3061 66.8077 31.5542 66.7512 31.8196C66.6946 32.085 66.7022 32.3601 66.7735 32.6219L65.3125 33.5965ZM85.9375 96.5268L92.101 102.69H79.7741L85.9375 96.5268Z" fill="#FF669D"/>
<path d="M85.9376 66.5967C85.4817 66.5967 85.0445 66.7778 84.7222 67.1001C84.3999 67.4224 84.2188 67.8596 84.2188 68.3154V75.1904C84.2188 75.6463 84.3999 76.0834 84.7222 76.4058C85.0445 76.7281 85.4817 76.9092 85.9376 76.9092C86.3934 76.9092 86.8306 76.7281 87.1529 76.4058C87.4752 76.0834 87.6563 75.6463 87.6563 75.1904V68.3154C87.6563 67.8596 87.4752 67.4224 87.1529 67.1001C86.8306 66.7778 86.3934 66.5967 85.9376 66.5967Z" fill="#FF669D"/>
<path d="M49.9332 88.0106C49.7079 87.994 49.4815 88.0219 49.267 88.0928C49.0526 88.1637 48.8542 88.2763 48.6832 88.4239C48.5122 88.5716 48.3721 88.7515 48.2707 88.9534C48.1693 89.1552 48.1087 89.3751 48.0924 89.6004C47.7074 94.8873 44.0379 102.69 41.25 102.69C39.7577 102.686 38.3082 102.191 37.125 101.281C36.8266 101.055 36.4627 100.933 36.0886 100.933C35.7145 100.933 35.3507 101.055 35.0522 101.281C33.8719 102.188 32.4264 102.684 30.9375 102.69C27.8438 102.69 24.0625 93.4848 24.0625 88.9404C24.0625 87.1171 24.7869 85.3684 26.0762 84.0791C27.3655 82.7898 29.1142 82.0654 30.9375 82.0654C32.4299 82.07 33.8794 82.5653 35.0625 83.4748C35.361 83.7004 35.7249 83.8224 36.099 83.8224C36.473 83.8224 36.8369 83.7004 37.1354 83.4748C38.5049 82.4516 40.2066 81.9753 41.9083 82.139C43.6101 82.3027 45.1898 83.0945 46.3393 84.36C46.6514 84.6662 47.0686 84.842 47.5058 84.8515C47.943 84.8609 48.3674 84.7034 48.6925 84.4109C49.0176 84.1184 49.219 83.713 49.2557 83.2773C49.2924 82.8415 49.1615 82.4081 48.8899 82.0654C47.9278 80.9898 46.7508 80.1281 45.4348 79.5359C44.1188 78.9438 42.6931 78.6345 41.25 78.6279C40.012 78.6323 38.7854 78.8654 37.6321 79.3154C37.5035 78.4962 37.2992 77.6907 37.0219 76.9092H41.25C43.5284 76.9065 45.7127 76.0002 47.3237 74.3891C48.9348 72.7781 49.8411 70.5938 49.8438 68.3154C49.8438 67.8596 49.6627 67.4224 49.3404 67.1001C49.0181 66.7778 48.5809 66.5967 48.125 66.5967H42.9688C41.094 66.6018 39.2724 67.2208 37.7826 68.359C36.2928 69.4971 35.2167 71.0918 34.7188 72.8993C33.9044 71.9073 32.9503 71.0389 31.8863 70.3212C31.6985 70.1959 31.4879 70.1089 31.2665 70.065C31.045 70.0212 30.8171 70.0213 30.5957 70.0655C30.3744 70.1097 30.1639 70.1971 29.9763 70.3227C29.7887 70.4482 29.6277 70.6095 29.5024 70.7973C29.3771 70.9851 29.2901 71.1957 29.2462 71.4172C29.2023 71.6386 29.2025 71.8665 29.2467 72.0879C29.2909 72.3092 29.3783 72.5197 29.5039 72.7073C29.6294 72.8949 29.7907 73.0559 29.9785 73.1812C32.0668 74.5735 33.5429 76.7125 34.1035 79.159C33.0835 78.8133 32.0145 78.634 30.9375 78.6279C30.3613 78.6314 29.7864 78.6831 29.2188 78.7826V76.6153C29.2236 74.8475 28.8778 73.0963 28.2013 71.463C27.5248 69.8298 26.5311 68.3469 25.2777 67.1003C24.3444 66.1721 23.6045 65.068 23.1008 63.8519C22.5972 62.6358 22.3399 61.3319 22.3438 60.0156V52.8467C22.7996 52.8467 23.2368 52.6656 23.5591 52.3433C23.8815 52.0209 24.0625 51.5838 24.0625 51.1279V44.2529C24.0625 43.7971 23.8815 43.3599 23.5591 43.0376C23.2368 42.7153 22.7996 42.5342 22.3438 42.5342H6.87505C6.41921 42.5342 5.98204 42.7153 5.65971 43.0376C5.33738 43.3599 5.1563 43.7971 5.1563 44.2529V51.1279C5.1563 51.5838 5.33738 52.0209 5.65971 52.3433C5.98204 52.6656 6.41921 52.8467 6.87505 52.8467V60.0156C6.87894 61.3319 6.62163 62.6358 6.11801 63.8519C5.6144 65.068 4.87449 66.1721 3.94114 67.1003C2.68774 68.3469 1.69403 69.8298 1.01754 71.463C0.341055 73.0963 -0.00478168 74.8475 4.99351e-05 76.6153V104.409C4.99351e-05 104.865 0.181132 105.302 0.50346 105.625C0.825788 105.947 1.26296 106.128 1.7188 106.128H20.625C21.0809 106.128 21.5181 105.947 21.8404 105.625C22.1627 105.302 22.3438 104.865 22.3438 104.409C22.3438 103.953 22.1627 103.516 21.8404 103.194C21.5181 102.872 21.0809 102.69 20.625 102.69H3.43755V94.0967H21.438C22.9075 99.5864 26.2935 106.128 30.9375 106.128C32.7517 106.128 34.5324 105.64 36.0938 104.717C37.6551 105.641 39.4359 106.128 41.25 106.128C47.1282 106.128 51.1191 95.3754 51.523 89.8514C51.5396 89.6261 51.5117 89.3997 51.4408 89.1852C51.3699 88.9708 51.2574 88.7724 51.1097 88.6014C50.962 88.4304 50.7821 88.2903 50.5802 88.1889C50.3784 88.0875 50.1585 88.0269 49.9332 88.0106ZM42.9688 70.0342H46.1124C45.7556 71.0388 45.0968 71.9085 44.2263 72.5239C43.3557 73.1393 42.3161 73.4704 41.25 73.4717H38.1065C38.4632 72.4671 39.1221 71.5974 39.9926 70.982C40.8631 70.3666 41.9027 70.0355 42.9688 70.0342ZM8.5938 45.9717H20.625V49.4092H8.5938V45.9717ZM3.43755 90.6592V82.0654H18.9063C19.3621 82.0654 19.7993 81.8843 20.1216 81.562C20.444 81.2397 20.625 80.8025 20.625 80.3467C20.625 79.8908 20.444 79.4537 20.1216 79.1313C19.7993 78.809 19.3621 78.6279 18.9063 78.6279H3.43755V76.6153C3.43366 75.299 3.69097 73.9951 4.19459 72.7789C4.6982 71.5628 5.43811 70.4587 6.37146 69.5306C7.62486 68.2839 8.61857 66.8011 9.29506 65.1678C9.97155 63.5346 10.3174 61.7834 10.3125 60.0156V52.8467H18.9063V60.0156C18.9011 61.7834 19.2468 63.5348 19.9233 65.1681C20.5998 66.8014 21.5937 68.2842 22.8474 69.5306C23.7807 70.4587 24.5206 71.5628 25.0243 72.7789C25.5279 73.9951 25.7852 75.299 25.7813 76.6153V80.0236C24.2157 80.9275 22.9151 82.2271 22.0102 83.7921C21.1052 85.3572 20.6275 87.1326 20.625 88.9404C20.6332 89.5154 20.6757 90.0893 20.7522 90.6592H3.43755Z" fill="#FF669D"/>
<path d="M65.3126 45.9717H49.8438C49.388 45.9717 48.9508 46.1528 48.6285 46.4751C48.3061 46.7974 48.1251 47.2346 48.1251 47.6904C48.1251 48.1463 48.3061 48.5834 48.6285 48.9058C48.9508 49.2281 49.388 49.4092 49.8438 49.4092H65.3126C65.7684 49.4092 66.2056 49.2281 66.5279 48.9058C66.8502 48.5834 67.0313 48.1463 67.0313 47.6904C67.0313 47.2346 66.8502 46.7974 66.5279 46.4751C66.2056 46.1528 65.7684 45.9717 65.3126 45.9717Z" fill="#FF669D"/>
<path d="M65.3126 54.5654H55.0001C54.5442 54.5654 54.107 54.7465 53.7847 55.0688C53.4624 55.3912 53.2813 55.8283 53.2813 56.2842C53.2813 56.74 53.4624 57.1772 53.7847 57.4995C54.107 57.8218 54.5442 58.0029 55.0001 58.0029H65.3126C65.7684 58.0029 66.2056 57.8218 66.5279 57.4995C66.8502 57.1772 67.0313 56.74 67.0313 56.2842C67.0313 55.8283 66.8502 55.3912 66.5279 55.0688C66.2056 54.7465 65.7684 54.5654 65.3126 54.5654Z" fill="#FF669D"/>
</svg>
