<svg width="110" height="110" viewBox="0 0 110 110" fill="none" xmlns="http://www.w3.org/2000/svg">
<g clip-path="url(#clip0)">
<path d="M94.8779 70.092C94.2958 69.8031 93.6748 69.5973 93.0353 69.4825C91.3384 69.153 89.5798 69.4463 88.0817 70.3075L67.8908 81.9593C67.5013 80.9347 66.8874 80.0107 66.0933 79.2555L110 53.9034L91.91 22.5669L55.1755 43.7744L18.441 22.5669L0.350677 53.9034L30.5327 71.3312H27.3528C25.7125 71.3339 24.1039 71.7791 22.6959 72.62L18.0903 75.3768V69.5222H0V109.321H18.0903V102.973L23.3814 105.064C24.4431 105.491 25.5764 105.707 26.7194 105.703H55.8265C57.5118 105.704 59.1645 105.234 60.5973 104.346L95.3302 82.8444C97.5649 81.5512 98.9341 79.1592 98.9182 76.5781C98.9173 75.3079 98.5852 74.0607 97.9536 72.9601C97.2417 71.7155 96.1693 70.7156 94.8779 70.092ZM105.058 52.5793L62.2818 77.2777L50.7032 74.1861L40.463 56.458L90.5876 27.5135L105.058 52.5793ZM38.2502 59.857C35.5738 60.2341 33.0378 58.5514 32.3453 55.9386C31.9672 54.5456 32.1624 53.0599 32.8885 51.8117C34.399 49.2201 37.7176 48.3323 40.3216 49.8225C40.9921 50.2129 41.568 50.7482 42.0061 51.3886L35.5261 55.1295L38.2502 59.857ZM5.29283 52.5793L19.7651 27.5099L51.5574 45.8644L45.1225 49.5796C44.3637 48.3862 43.3276 47.3934 42.1033 46.685C37.7688 44.2099 32.249 45.6948 29.7404 50.0106C27.8563 53.2136 28.1354 57.245 30.4435 60.1582C32.7507 63.0705 36.6117 64.2647 40.1609 63.1641L45.7682 72.8673L41.1917 71.6466C40.425 71.4399 39.6344 71.3339 38.8403 71.3312H37.7688L5.29283 52.5793ZM14.4723 105.703H3.61806V73.1403H14.4723V105.703ZM93.4619 79.744L58.692 101.271C57.8316 101.803 56.8388 102.085 55.8265 102.085H26.7194C26.0375 102.087 25.3618 101.958 24.7293 101.705L18.0903 99.0824V79.5938L24.5518 75.7257C25.3989 75.2187 26.3661 74.9511 27.3528 74.9493H38.8403C39.3173 74.952 39.7916 75.0164 40.2527 75.141L49.0497 77.4933L58.8677 80.1158L62.1475 80.9903C63.5493 81.4258 64.5572 82.6527 64.7126 84.1119C64.7118 84.5457 64.6764 84.9785 64.6075 85.406C64.1871 86.9695 62.7773 88.0639 61.1582 88.0833C60.8888 88.0648 59.8244 87.8484 59.0612 87.6744L40.2651 82.6456L39.3323 86.14L58.1894 91.1855C59.146 91.4399 60.1229 91.6131 61.1087 91.7014C64.3858 91.697 67.2522 89.4975 68.1046 86.3335C68.1355 86.2231 68.1355 86.1074 68.1585 85.9952L89.8907 73.4406C90.6406 73.0122 91.5204 72.8691 92.3675 73.0378C92.6864 73.0943 92.9964 73.1968 93.2862 73.3417C93.9239 73.6473 94.4539 74.1384 94.8081 74.7506C95.1279 75.3062 95.2975 75.936 95.3001 76.5781C95.3054 77.8881 94.6023 79.0991 93.4619 79.744Z" fill="#3CDC8C"/>
<path d="M64.93 59.0411C66.1251 61.1231 68.1019 62.6407 70.4224 63.2563C71.1891 63.4621 71.9797 63.5664 72.7738 63.5673C76.8662 63.5611 80.4445 60.8078 81.4992 56.8532C82.5539 52.8986 80.8217 48.7293 77.2761 46.6853C73.7304 44.6422 69.2538 45.234 66.3609 48.1287C63.4681 51.0242 62.8798 55.5008 64.9264 59.0447L64.93 59.0411ZM67.5225 53.1132C68.0913 50.9941 69.8801 49.4262 72.0557 49.1392C74.2313 48.853 76.3654 49.905 77.4624 51.805C78.692 53.9329 78.3387 56.62 76.6012 58.3575C74.8646 60.0949 72.1767 60.4483 70.0488 59.2196C67.9217 57.9909 66.8847 55.4858 67.5225 53.1132Z" fill="#3CDC8C"/>
<path d="M54.271 24.2969C53.2719 24.2969 52.4619 23.4869 52.4619 22.4879H48.8439C48.8536 24.7801 50.3013 26.8188 52.4619 27.5829V29.724H56.08V27.5829C58.5701 26.7057 60.0646 24.16 59.6177 21.5577C59.1698 18.9564 56.9112 17.0564 54.271 17.0608C53.2719 17.0608 52.4619 16.2508 52.4619 15.2518C52.4619 14.2527 53.2719 13.4427 54.271 13.4427C55.27 13.4427 56.08 14.2527 56.08 15.2518H59.6981C59.6883 12.9604 58.2406 10.9217 56.08 10.1577V8.01562H52.4619V10.1577C49.9719 11.0348 48.4773 13.5805 48.9243 16.1819C49.3721 18.7841 51.6307 20.6841 54.271 20.6788C55.27 20.6788 56.08 21.4889 56.08 22.4879C56.08 23.4869 55.27 24.2969 54.271 24.2969Z" fill="#3CDC8C"/>
<path d="M54.2709 36.9599C64.2621 36.9599 72.3612 28.8608 72.3612 18.8696C72.3612 8.87931 64.2621 0.779297 54.2709 0.779297C44.2797 0.779297 36.1806 8.87931 36.1806 18.8696C36.1912 28.8564 44.2841 36.9493 54.2709 36.9599ZM54.2709 4.39736C62.2641 4.39736 68.7432 10.8774 68.7432 18.8696C68.7432 26.8627 62.2641 33.3419 54.2709 33.3419C46.2778 33.3419 39.7987 26.8627 39.7987 18.8696C39.8075 10.8809 46.2822 4.40708 54.2709 4.39736Z" fill="#3CDC8C"/>
</g>
<defs>
<clipPath id="clip0">
<rect width="110" height="110" fill="white"/>
</clipPath>
</defs>
</svg>
